<?xml version="1.0" encoding="UTF-8" standalone="no"?>
<svg
   xmlns:dc="http://purl.org/dc/elements/1.1/"
   xmlns:cc="http://creativecommons.org/ns#"
   xmlns:rdf="http://www.w3.org/1999/02/22-rdf-syntax-ns#"
   xmlns:svg="http://www.w3.org/2000/svg"
   xmlns="http://www.w3.org/2000/svg"
   xmlns:sodipodi="http://sodipodi.sourceforge.net/DTD/sodipodi-0.dtd"
   xmlns:inkscape="http://www.inkscape.org/namespaces/inkscape"
   class="ionicon"
   viewBox="0 0 512 512"
   version="1.1"
   id="svg849"
   sodipodi:docname="favicon.svg"
   inkscape:version="1.0.2-2 (e86c870879, 2021-01-15)">
  <metadata
     id="metadata855">
    <rdf:RDF>
      <cc:Work
         rdf:about="">
        <dc:format>image/svg+xml</dc:format>
        <dc:type
           rdf:resource="http://purl.org/dc/dcmitype/StillImage" />
        <dc:title>Chatbubble</dc:title>
      </cc:Work>
    </rdf:RDF>
  </metadata>
  <defs
     id="defs853" />
  <sodipodi:namedview
     pagecolor="#ffffff"
     bordercolor="#666666"
     borderopacity="1"
     objecttolerance="10"
     gridtolerance="10"
     guidetolerance="10"
     inkscape:pageopacity="0"
     inkscape:pageshadow="2"
     inkscape:window-width="1920"
     inkscape:window-height="1001"
     id="namedview851"
     showgrid="false"
     inkscape:zoom="1.5644531"
     inkscape:cx="256"
     inkscape:cy="230.43196"
     inkscape:window-x="-9"
     inkscape:window-y="-9"
     inkscape:window-maximized="1"
     inkscape:current-layer="svg849" />
  <title
     id="title845">Chatbubble</title>
  <path
     d="M87.49 380c1.19-4.38-1.44-10.47-3.95-14.86a44.86 44.86 0 00-2.54-3.8 199.81 199.81 0 01-33-110C47.65 139.09 140.73 48 255.83 48 356.21 48 440 117.54 459.58 209.85a199 199 0 014.42 41.64c0 112.41-89.49 204.93-204.59 204.93-18.3 0-43-4.6-56.47-8.37s-26.92-8.77-30.39-10.11a31.09 31.09 0 00-11.12-2.07 30.71 30.71 0 00-12.09 2.43l-67.83 24.48a16 16 0 01-4.67 1.22 9.6 9.6 0 01-9.57-9.74 15.85 15.85 0 01.6-3.29z"
     fill="none"
     stroke="currentColor"
     stroke-linecap="round"
     stroke-miterlimit="10"
     stroke-width="32"
     id="path847"
     style="stroke:#ff8000;stroke-opacity:1;fill:#ff8000;fill-opacity:1" />
</svg>
